<svg version="1.2" xmlns="http://www.w3.org/2000/svg" viewBox="0 0 500 500" width="500" height="500">
	<title>New Project</title>
	<style>
		.s0 { fill: #ffffff } 
		.s1 { fill: #131315 } 
	</style>
	<path id="图层 1" class="s0" d="m250 500c-138.3 0-250-111.8-250-250 0-138.3 111.8-250 250-250 138.3 0 250 111.8 250 250 0 138.3-111.8 250-250 250z"/>
	<path class="s1" d="m125.7 238.5h35.5l22.4-68.6 22.4 68.6h35.4l39.7-123.5h-37.4l-8.6 27.5-12.7 39.5-21.9-67h-33.9l-9.2 27.5-12.5 38.5-12.5-38.5-8.6-27.5h-37.8z"/>
	<path class="s1" d="m114.3 379.8h36.3v-64.6l24.6 34.4h23.8l24.4-34.2v64.4h36.4v-127.3h-29.9l-42.9 60.6-42.7-60.6h-30z"/>
	<path class="s1" d="m413.1 183.4c0-35.1-21.3-61.6-53.7-67.1v37.3c12 4.6 19.7 15.3 19.7 29.1 0 17.8-13.3 30.2-32.4 30.2-19.3 0-32.4-12.5-32.4-30.5 0-13.3 7.5-24.4 18.9-28.2v-37.1c-32.2 6.5-52.9 32.7-52.9 66.7 0 39.3 27.1 66.4 66.4 66.4 39.3 0 66.4-27.1 66.4-66.8z"/>
	<path class="s1" d="m408.4 384.6v-36.4h-64.9l64.9-48.4v-29.8h-127.3v36.2h64.6l-64.6 48.4v30z"/>
</svg>